HIERARCHY
ROOT Hips
{
 OFFSET 0.000000 0.000000 0.000000
 CHANNELS 6 Xposition Yposition Zposition Yrotation Xrotation Zrotation
 JOINT Chest
 {
  OFFSET 0.000000 9.585900 0.002600
  CHANNELS 3 Yrotation Xrotation Zrotation
  JOINT Chest2
  {
   OFFSET 0.000000 9.601200 -0.005300
   CHANNELS 3 Yrotation Xrotation Zrotation
   JOINT Chest3
   {
    OFFSET 0.000000 9.561800 0.000000
    CHANNELS 3 Yrotation Xrotation Zrotation
    JOINT Chest4
    {
     OFFSET 0.000000 9.552100 0.000000
     CHANNELS 3 Yrotation Xrotation Zrotation
     JOINT Neck
     {
      OFFSET 0.000000 14.453000 0.000000
      CHANNELS 3 Yrotation Xrotation Zrotation
      JOINT Head
      {
       OFFSET 0.000000 8.936500 -0.011300
       CHANNELS 3 Yrotation Xrotation Zrotation
       End Site
       {
        OFFSET 0.000000 17.073600 -0.006000
       }
      }
     }
     JOINT RightCollar
     {
      OFFSET -2.921100 9.558500 0.000000
      CHANNELS 3 Yrotation Xrotation Zrotation
      JOINT RightShoulder
      {
       OFFSET -13.519700 0.000000 0.000000
       CHANNELS 3 Yrotation Xrotation Zrotation
       JOINT RightElbow
       {
        OFFSET 0.000000 -29.696600 0.000000
        CHANNELS 3 Yrotation Xrotation Zrotation
        JOINT RightWrist
        {
         OFFSET 0.000000 -24.004700 0.000000
         CHANNELS 3 Yrotation Xrotation Zrotation
         End Site
         {
          OFFSET 0.000000 -17.728500 0.000000
         }
        }
       }
      }
     }
     JOINT LeftCollar
     {
      OFFSET 2.921100 9.558500 0.000000
      CHANNELS 3 Yrotation Xrotation Zrotation
      JOINT LeftShoulder
      {
       OFFSET 13.519700 0.000000 0.000000
       CHANNELS 3 Yrotation Xrotation Zrotation
       JOINT LeftElbow
       {
        OFFSET 0.000000 -29.696600 0.000000
        CHANNELS 3 Yrotation Xrotation Zrotation
        JOINT LeftWrist
        {
         OFFSET 0.000000 -24.004700 0.000000
         CHANNELS 3 Yrotation Xrotation Zrotation
         End Site
         {
          OFFSET 0.000000 -17.728500 0.000000
         }
        }
       }
      }
     }
    }
   }
  }
 }
 JOINT RightHip
 {
  OFFSET -7.771700 -0.012900 -0.001300
  CHANNELS 3 Yrotation Xrotation Zrotation
  JOINT RightKnee
  {
   OFFSET 0.000000 -40.869800 0.001200
   CHANNELS 3 Yrotation Xrotation Zrotation
   JOINT RightAnkle
   {
    OFFSET 0.000000 -39.717900 0.002100
    CHANNELS 3 Yrotation Xrotation Zrotation
    JOINT RightToe
    {
     OFFSET 0.000000 -4.965400 11.033500
     CHANNELS 3 Yrotation Xrotation Zrotation
     End Site
     {
      OFFSET 0.000000 -1.423100 5.872300
     }
    }
   }
  }
 }
 JOINT LeftHip
 {
  OFFSET 7.771700 -0.012900 -0.001300
  CHANNELS 3 Yrotation Xrotation Zrotation
  JOINT LeftKnee
  {
   OFFSET 0.000000 -40.869800 0.001200
   CHANNELS 3 Yrotation Xrotation Zrotation
   JOINT LeftAnkle
   {
    OFFSET 0.000000 -39.717900 0.002100
    CHANNELS 3 Yrotation Xrotation Zrotation
    JOINT LeftToe
    {
     OFFSET 0.000000 -4.965400 11.033500
     CHANNELS 3 Yrotation Xrotation Zrotation
     End Site
     {
      OFFSET 0.000000 -1.423100 5.872300
     }
    }
   }
  }
 }
}
MOTION
Frames: 16
Frame Time: 0.008333
0.000000 85.388000 0.000000 0.000000 -5.767877 0.000000 0.000000 11.653817 0.000000 0.000000 -5.885947 0.000000 0.000000 -0.000000 0.000000 0.000000 -0.000000 0.000000 0.000000 12.528835 0.000000 0.000000 0.711642 0.000000 0.000000 -0.000000 0.000000 0.000000 0.000000 -90.000000 0.000000 -2.309062 0.000000 0.000000 2.309062 0.000000 0.000000 -0.000000 0.000000 0.000000 -0.000000 90.000000 0.000000 -2.309062 0.000000 0.000000 2.309062 0.000000 0.000000 8.520406 0.000000 0.000000 1.905762 0.000000 -0.000000 -4.658285 0.000000 0.000000 -0.000000 0.000000 0.000000 8.520406 0.000000 0.000000 1.905762 0.000000 -0.000000 -4.658285 0.000000 0.000000 -0.000000 0.000000
-30.304930 57.885679 12.954746 178.152038 -48.770797 -3.158031 3.860734 22.352830 2.670870 1.970311 12.787143 1.323220 2.546336 16.005541 1.727803 2.015136 12.789824 1.279961 -1.689212 14.043684 -4.911486 -1.218335 -9.793970 -8.492247 3.486851 3.791143 0.770069 -0.708239 -27.409604 -4.978538 -91.048216 -43.340443 148.344334 12.066345 3.939643 13.165360 -9.240651 0.930153 0.277484 -4.772040 -19.824076 13.035020 89.683802 -39.767379 -145.370082 4.169683 -9.074583 -12.620221 2.964248 -22.791010 -3.817685 -34.586662 73.215314 -38.758278 6.346700 -13.299466 11.717339 -0.000417 -0.069549 -0.014257 -6.081433 -20.394529 5.680838 87.357262 83.007417 86.525272 0.685343 -21.943249 -17.112786 0.011694 0.021407 0.010363
-30.303457 57.886018 12.950917 178.149924 -48.745272 -3.156420 3.872910 22.343140 2.669922 1.986634 12.781088 1.313670 2.558367 15.987732 1.722351 2.013989 12.762609 1.284414 -1.653917 13.997232 -4.801414 -1.243971 -9.798366 -8.366223 3.446292 3.845119 0.769332 -0.854894 -27.000791 -5.036289 -90.671310 -43.320044 148.190382 11.996963 3.927555 13.139337 -9.197709 0.958098 0.302226 -4.586132 -19.368280 13.061580 89.444724 -39.871609 -145.299477 4.195708 -8.764845 -13.012145 2.961614 -22.818087 -3.818903 -34.601123 73.218460 -38.770357 6.347152 -13.299152 11.714953 0.006900 -0.072296 -0.014538 -6.077319 -20.419223 5.671139 87.409510 83.000076 86.591163 0.695381 -21.949094 -17.120896 0.007933 0.021918 0.006943
-30.301748 57.879683 12.952487 178.154120 -48.661609 -3.162091 3.885509 22.274069 2.670099 1.984614 12.770293 1.310508 2.596011 15.937280 1.699586 2.007977 12.760297 1.304289 -1.641658 13.970562 -4.705358 -1.264692 -9.815629 -8.223572 3.398089 3.909788 0.773397 -0.987464 -26.598526 -5.087285 -90.316768 -43.311197 148.043312 11.927014 3.923004 13.101936 -9.107214 0.979408 0.333324 -4.455053 -18.908445 13.075209 89.234471 -39.999264 -145.233434 4.213477 -8.460147 -13.396666 2.952110 -22.904744 -3.822008 -34.612501 73.219278 -38.776282 6.348486 -13.304279 11.708224 0.005133 -0.063901 -0.011433 -6.088443 -20.504635 5.679457 87.477516 83.010087 86.670961 0.708573 -21.963430 -17.131985 0.014772 0.029913 0.007733
-30.301440 57.877992 12.949443 178.159108 -48.612249 -3.160140 3.905194 22.243523 2.664484 1.981791 12.746027 1.310949 2.611760 15.915983 1.696576 2.022324 12.741405 1.298410 -1.639688 13.954069 -4.620490 -1.292805 -9.849068 -8.065046 3.322182 3.986142 0.748051 -1.095570 -26.220026 -5.099251 -89.994453 -43.312151 147.898937 11.860415 3.915568 13.056670 -9.056316 0.997065 0.373596 -4.293926 -18.462889 13.074544 89.020187 -40.143071 -145.162009 4.237312 -8.172585 -13.780149 2.942908 -22.955853 -3.833924 -34.639199 73.220248 -38.797264 6.347366 -13.305163 11.704096 0.004859 -0.062350 -0.011870 -6.089777 -20.556561 5.672529 87.507200 83.007194 86.708032 0.707377 -21.962180 -17.125128 0.010792 0.031564 0.000557
-30.300100 57.876834 12.945820 178.162152 -48.564767 -3.164679 3.916783 22.218926 2.664603 2.011468 12.711570 1.305944 2.588915 15.916018 1.711289 2.037189 12.727022 1.287377 -1.635440 13.930291 -4.540718 -1.314461 -9.895571 -7.917216 3.267389 4.032640 0.714368 -1.181396 -25.841523 -5.120248 -89.714423 -43.324573 147.762586 11.801336 3.900599 12.994835 -9.006800 0.994996 0.403343 -4.122723 -18.037300 13.066189 88.776921 -40.298394 -145.080932 4.292141 -7.911775 -14.145722 2.932866 -23.005866 -3.835999 -34.657659 73.227857 -38.803737 6.335710 -13.307950 11.689310 0.011953 -0.060449 -0.007163 -6.090420 -20.603492 5.670850 87.538999 83.001093 86.751721 0.712081 -21.966436 -17.124933 0.007774 0.034082 -0.004502
-30.298745 57.877968 12.940051 178.159677 -48.534497 -3.167105 3.927024 22.216170 2.666721 2.029234 12.713701 1.299628 2.589789 15.883292 1.714602 2.027061 12.721262 1.297470 -1.623180 13.898057 -4.473869 -1.332802 -9.945815 -7.776055 3.239448 4.052739 0.663232 -1.246060 -25.465205 -5.146434 -89.490302 -43.354873 147.637988 11.746155 3.880484 12.907484 -8.936059 0.972886 0.418528 -3.962563 -17.632504 13.053560 88.478155 -40.442589 -144.966645 4.333047 -7.676642 -14.477216 2.926429 -23.040052 -3.838953 -34.661540 73.240080 -38.801191 6.351352 -13.309338 11.682038 0.013085 -0.064744 -0.004384 -6.085484 -20.631853 5.666957 87.590863 82.996149 86.819534 0.719928 -21.971003 -17.130035 0.004585 0.032540 -0.007208
-30.299012 57.878749 12.934353 178.160570 -48.501047 -3.164778 3.935701 22.209888 2.661638 2.037993 12.700147 1.298475 2.599565 15.868226 1.709050 2.008262 12.714979 1.315356 -1.614786 13.884809 -4.440922 -1.354081 -10.007427 -7.603536 3.215828 4.064582 0.609444 -1.293306 -25.093958 -5.170104 -89.321234 -43.402481 147.523876 11.687620 3.850297 12.808128 -8.855708 0.948918 0.433672 -3.820507 -17.250442 13.038409 88.122285 -40.550156 -144.797477 4.331819 -7.458930 -14.788416 2.920886 -23.076018 -3.850392 -34.659988 73.251254 -38.795702 6.353526 -13.308068 11.684483 0.017742 -0.070718 -0.011164 -6.077286 -20.666500 5.654118 87.625413 82.989140 86.870801 0.727309 -21.969936 -17.135097 -0.000796 0.029264 -0.008067
-30.299325 57.873636 12.933865 178.141593 -48.420662 -3.150516 3.960607 22.154589 2.658078 2.050109 12.685487 1.297713 2.583327 15.854671 1.716538 2.037082 12.700614 1.298272 -1.604593 13.854242 -4.347556 -1.398980 -10.034544 -7.456026 3.137704 4.075713 0.523932 -1.350712 -24.723464 -5.121888 -89.187027 -43.457683 147.425708 11.628626 3.810941 12.704183 -8.801035 0.936073 0.475079 -3.703813 -16.889707 13.021672 87.730811 -40.625035 -144.585854 4.320015 -7.264609 -15.077422 2.921613 -23.164056 -3.863719 -34.637731 73.265025 -38.776907 6.366382 -13.313086 11.684475 0.008747 -0.069442 -0.016973 -6.062909 -20.749268 5.644713 87.680044 82.975850 86.952878 0.730220 -21.978891 -17.150859 0.005290 0.031319 -0.009190
-30.299374 57.872418 12.929915 178.137111 -48.370915 -3.149864 3.981985 22.127998 2.659729 2.047258 12.666456 1.300366 2.613614 15.843581 1.712210 2.050776 12.685600 1.297894 -1.606570 13.825309 -4.252775 -1.449953 -10.058712 -7.302626 3.069673 4.082156 0.505861 -1.417635 -24.354545 -5.134374 -89.072823 -43.512262 147.343117 11.579416 3.772255 12.598461 -8.757675 0.924405 0.517638 -3.607834 -16.546318 13.004707 87.310946 -40.680802 -144.353747 4.310946 -7.108470 -15.321565 2.917583 -23.217242 -3.868433 -34.636330 73.277776 -38.767541 6.364908 -13.317349 11.674384 0.014457 -0.068351 -0.013196 -6.055597 -20.800082 5.636334 87.725454 82.973785 87.020196 0.739609 -21.983717 -17.153205 0.009249 0.030666 -0.015166
-30.298793 57.870473 12.926669 178.130004 -48.315673 -3.152656 4.009792 22.092971 2.664398 2.042302 12.648785 1.306132 2.689109 15.818217 1.683900 2.021927 12.679041 1.333019 -1.618075 13.817829 -4.183521 -1.492586 -10.104104 -7.123683 3.010548 4.085921 0.492915 -1.486926 -23.983972 -5.146892 -88.977075 -43.565978 147.266552 11.542948 3.737909 12.503672 -8.710535 0.914137 0.558217 -3.524271 -16.215850 12.986649 86.872507 -40.718451 -144.114288 4.298680 -6.984795 -15.513662 2.915171 -23.275333 -3.866007 -34.664465 73.281763 -38.784304 6.370197 -13.322872 11.665204 0.015892 -0.063023 -0.005684 -6.047319 -20.855087 5.633177 87.780322 82.971700 87.100452 0.752741 -21.993137 -17.162689 0.009352 0.032548 -0.016511
-30.299405 57.872066 12.920136 178.128637 -48.289874 -3.153159 4.039749 22.087797 2.662626 2.096644 12.639289 1.292970 2.650831 15.795515 1.715788 2.105945 12.642939 1.281229 -1.690917 13.848723 -4.076364 -1.526336 -10.173943 -6.923644 2.904691 4.109684 0.566159 -1.556877 -23.626102 -5.178876 -88.892522 -43.624391 147.190402 11.517151 3.707189 12.424194 -8.727731 0.924651 0.653087 -3.450954 -15.895302 12.965267 86.428590 -40.736523 -143.872799 4.286342 -6.873984 -15.655384 2.912699 -23.302622 -3.868152 -34.707066 73.289969 -38.816651 6.366414 -13.330416 11.657766 0.030038 -0.063253 -0.002473 -6.037672 -20.879557 5.618998 87.816503 82.961032 87.159313 0.759574 -21.994684 -17.170750 -0.000597 0.029074 -0.017666
-30.299378 57.873218 12.914080 178.122986 -48.261913 -3.155323 4.078395 22.082952 2.665527 2.117503 12.625265 1.290872 2.641266 15.774823 1.728758 2.172504 12.627404 1.241889 -1.719724 13.825937 -3.960157 -1.588180 -10.210455 -6.737118 2.803248 4.079112 0.597376 -1.639700 -23.238424 -5.170134 -88.811524 -43.689887 147.117836 11.500858 3.679500 12.350966 -8.731671 0.904274 0.733405 -3.389935 -15.579701 12.942060 85.981651 -40.740665 -143.625270 4.271591 -6.771338 -15.749425 2.911051 -23.331335 -3.867128 -34.706244 73.294542 -38.810823 6.373311 -13.328488 11.663625 0.028797 -0.068371 -0.013607 -6.027050 -20.905207 5.611488 87.852200 82.951388 87.218280 0.766437 -21.998031 -17.180311 0.000923 0.026135 -0.018004
-30.300550 57.868279 12.913429 178.109647 -48.187126 -3.146325 4.098870 22.020893 2.659704 2.147022 12.631787 1.281285 2.717687 15.757453 1.704582 2.149162 12.618271 1.276283 -1.724274 13.785488 -3.867963 -1.657283 -10.250147 -6.544169 2.729849 4.010081 0.613723 -1.737782 -22.837870 -5.158088 -88.739266 -43.760447 147.057302 11.483546 3.654849 12.281671 -8.711601 0.845768 0.789244 -3.342364 -15.264909 12.918932 85.553759 -40.742652 -143.370760 4.259522 -6.681487 -15.812110 2.914917 -23.409705 -3.880420 -34.684974 73.303175 -38.786252 6.384471 -13.335891 11.663371 0.015007 -0.061320 -0.015055 -6.009969 -20.984957 5.593803 87.945610 82.933925 87.341367 0.782587 -22.007349 -17.193246 -0.006447 0.030906 -0.019688
-30.300411 57.865452 12.911125 178.100841 -48.130536 -3.148503 4.120205 21.977794 2.662658 2.160138 12.636914 1.276853 2.752233 15.759873 1.690329 2.135713 12.596432 1.300942 -1.687318 13.742896 -3.762686 -1.731706 -10.287297 -6.394874 2.697071 3.937574 0.610563 -1.854460 -22.441029 -5.148410 -88.670886 -43.834787 147.006237 11.457074 3.632606 12.223330 -8.659625 0.769286 0.804702 -3.295978 -14.955998 12.892562 85.161656 -40.752838 -143.116739 4.263158 -6.600021 -15.857531 2.914907 -23.467920 -3.877435 -34.683812 73.305235 -38.781182 6.394366 -13.341290 11.662114 0.024155 -0.056328 -0.012182 -6.009570 -21.042318 5.602876 88.008930 82.930933 87.413820 0.785744 -22.013396 -17.198422 -0.006629 0.035248 -0.014260
-30.301430 57.864883 12.906809 178.098825 -48.093821 -3.148143 4.140101 21.977194 2.655313 2.158394 12.632100 1.277851 2.760776 15.746886 1.689142 2.145200 12.583922 1.300749 -1.691071 13.722539 -3.681960 -1.764069 -10.349245 -6.232413 2.672555 3.850391 0.605265 -1.995646 -22.042831 -5.126140 -88.586886 -43.912884 146.953963 11.426706 3.608604 12.176740 -8.623747 0.704144 0.816031 -3.216745 -14.681653 12.852797 84.789235 -40.777630 -142.870205 4.277427 -6.527631 -15.881424 2.914703 -23.504880 -3.880787 -34.682156 73.313923 -38.776961 6.384312 -13.346913 11.664777 0.021641 -0.054554 -0.011476 -6.009507 -21.079075 5.601449 88.055439 82.928188 87.468248 0.788353 -22.016554 -17.203613 -0.006882 0.034622 -0.012046
